<?xml version="1.0" standalone="no"?>
<!DOCTYPE svg PUBLIC "-//W3C//DTD SVG 20010904//EN"
 "http://www.w3.org/TR/2001/REC-SVG-20010904/DTD/svg10.dtd">
<svg version="1.0" xmlns="http://www.w3.org/2000/svg"
 width="512.000000pt" height="512.000000pt" viewBox="0 0 512.000000 512.000000"
 preserveAspectRatio="xMidYMid meet">
<metadata>
Created by potrace 1.11, written by Peter Selinger 2001-2013
</metadata>
<g transform="translate(0.000000,512.000000) scale(0.100000,-0.100000)"
fill="#000000" stroke="none">
<path d="M4218 4113 c-40 -42 -50 -78 -54 -192 -3 -70 -9 -110 -18 -120 -7 -9
-24 -36 -36 -61 -47 -93 -80 -131 -139 -158 -50 -24 -68 -27 -171 -27 -143 0
-173 12 -344 138 -172 126 -226 151 -406 184 -139 25 -417 23 -570 -5 -369
-67 -666 -238 -859 -496 -106 -141 -235 -402 -289 -586 -6 -19 -29 -93 -52
-165 -51 -161 -74 -275 -95 -475 -9 -85 -18 -162 -20 -170 -3 -8 -20 -125 -39
-260 -45 -311 -66 -374 -166 -483 -122 -133 -269 -174 -487 -132 -95 18 -123
19 -123 3 0 -28 130 -96 235 -123 172 -44 351 11 496 155 49 48 87 97 107 136
73 145 142 397 232 843 54 271 84 364 176 557 95 199 229 373 342 445 63 40
75 38 56 -6 -30 -73 -14 -167 42 -241 24 -31 27 -44 25 -97 -5 -155 -40 -326
-85 -416 -35 -69 -100 -136 -223 -231 -206 -159 -208 -163 -206 -310 0 -58 5
-152 10 -210 4 -58 5 -163 0 -235 -7 -122 -10 -134 -42 -196 -23 -44 -35 -80
-35 -107 0 -32 -7 -49 -30 -75 -47 -54 -36 -137 19 -137 30 0 113 49 159 93
50 49 58 75 67 217 9 153 34 365 51 438 21 93 55 144 179 268 122 123 199 182
390 304 250 159 398 286 477 410 44 68 101 182 118 233 10 33 15 38 34 32 68
-20 189 -36 314 -42 78 -3 142 -8 142 -10 0 -9 -50 -80 -68 -97 -15 -13 -29
-16 -46 -12 -18 4 -31 1 -44 -12 -14 -14 -24 -16 -51 -8 -29 8 -36 7 -51 -11
-9 -12 -30 -23 -46 -25 -37 -4 -43 -32 -13 -64 22 -23 25 -24 143 -18 114 4
123 6 156 33 22 18 43 50 60 90 25 63 89 141 115 141 12 0 11 -9 -1 -50 -39
-131 -109 -230 -164 -230 -14 0 -31 -5 -38 -12 -9 -9 -17 -9 -36 2 -20 10 -29
10 -39 1 -8 -6 -21 -9 -28 -6 -18 6 -92 -20 -97 -35 -12 -35 87 -77 155 -66
21 3 70 10 109 14 39 5 76 12 82 16 5 3 17 27 26 52 18 53 115 175 233 292 63
62 98 88 143 106 136 56 277 186 365 339 45 79 52 87 75 82 14 -3 63 -12 110
-19 68 -11 97 -22 139 -51 61 -40 96 -43 95 -7 0 12 5 22 12 22 28 0 63 24 75
51 17 42 -1 78 -76 152 -45 45 -73 85 -103 147 -22 47 -55 102 -73 124 -32 38
-116 86 -151 86 -22 0 -22 2 2 50 27 53 35 116 21 166 -14 52 -36 72 -61 57
-14 -10 -19 -7 -29 13 -14 33 -50 31 -83 -3z"/>
</g>
</svg>
