<svg width="1120" height="560" viewBox="0 0 1120 560" fill="none" xmlns="http://www.w3.org/2000/svg">
<mask id="mask0" mask-type="alpha" maskUnits="userSpaceOnUse" x="0" y="0" width="1120" height="560">
<path fill-rule="evenodd" clip-rule="evenodd" d="M50 0C22.3858 0 0 22.3858 0 50V510C0 537.614 22.3858 560 50 560H1070C1097.61 560 1120 537.614 1120 510V50C1120 22.3858 1097.61 0 1070 0H50ZM70 30C47.9086 30 30 47.9086 30 70V490C30 512.091 47.9086 530 70 530H1050C1072.09 530 1090 512.091 1090 490V70C1090 47.9086 1072.09 30 1050 30H70Z" fill="white"/>
</mask>
<g mask="url(#mask0)">
<rect x="396.92" y="-108.589" width="10" height="969" rx="5" transform="rotate(30 396.92 -108.589)" fill="#68C9BA"/>
<rect x="432.92" y="-108.589" width="10" height="969" rx="5" transform="rotate(30 432.92 -108.589)" fill="#68C9BA"/>
<rect x="468.92" y="-108.589" width="10" height="969" rx="5" transform="rotate(30 468.92 -108.589)" fill="#68C9BA"/>
<rect x="504.92" y="-108.589" width="10" height="969" rx="5" transform="rotate(30 504.92 -108.589)" fill="#68C9BA"/>
<rect x="540.92" y="-108.589" width="10" height="969" rx="5" transform="rotate(30 540.92 -108.589)" fill="#68C9BA"/>
<rect x="576.92" y="-108.589" width="10" height="969" rx="5" transform="rotate(30 576.92 -108.589)" fill="#68C9BA"/>
<rect x="612.92" y="-108.589" width="10" height="969" rx="5" transform="rotate(30 612.92 -108.589)" fill="#68C9BA"/>
<rect x="648.92" y="-108.589" width="10" height="969" rx="5" transform="rotate(30 648.92 -108.589)" fill="#68C9BA"/>
<rect x="684.92" y="-108.589" width="10" height="969" rx="5" transform="rotate(30 684.92 -108.589)" fill="#68C9BA"/>
<rect x="720.92" y="-108.589" width="10" height="969" rx="5" transform="rotate(30 720.92 -108.589)" fill="#68C9BA"/>
<rect x="756.92" y="-108.589" width="10" height="969" rx="5" transform="rotate(30 756.92 -108.589)" fill="#68C9BA"/>
<rect x="180.92" y="-108.589" width="10" height="969" rx="5" transform="rotate(30 180.92 -108.589)" fill="#68C9BA"/>
<rect x="216.92" y="-108.589" width="10" height="969" rx="5" transform="rotate(30 216.92 -108.589)" fill="#68C9BA"/>
<rect x="252.92" y="-108.589" width="10" height="969" rx="5" transform="rotate(30 252.92 -108.589)" fill="#68C9BA"/>
<rect x="288.92" y="-108.589" width="10" height="969" rx="5" transform="rotate(30 288.92 -108.589)" fill="#68C9BA"/>
<rect x="36.9199" y="-108.589" width="10" height="969" rx="5" transform="rotate(30 36.9199 -108.589)" fill="#68C9BA"/>
<rect x="72.9199" y="-108.589" width="10" height="969" rx="5" transform="rotate(30 72.9199 -108.589)" fill="#68C9BA"/>
<rect x="108.92" y="-108.589" width="10" height="969" rx="5" transform="rotate(30 108.92 -108.589)" fill="#68C9BA"/>
<rect x="144.92" y="-108.589" width="10" height="969" rx="5" transform="rotate(30 144.92 -108.589)" fill="#68C9BA"/>
<rect x="324.92" y="-108.589" width="10" height="969" rx="5" transform="rotate(30 324.92 -108.589)" fill="#68C9BA"/>
<rect x="360.92" y="-108.589" width="10" height="969" rx="5" transform="rotate(30 360.92 -108.589)" fill="#68C9BA"/>
<rect x="792.92" y="-108.589" width="10" height="969" rx="5" transform="rotate(30 792.92 -108.589)" fill="#68C9BA"/>
<rect x="828.92" y="-108.589" width="10" height="969" rx="5" transform="rotate(30 828.92 -108.589)" fill="#68C9BA"/>
<rect x="864.92" y="-108.589" width="10" height="969" rx="5" transform="rotate(30 864.92 -108.589)" fill="#68C9BA"/>
<rect x="900.92" y="-108.589" width="10" height="969" rx="5" transform="rotate(30 900.92 -108.589)" fill="#68C9BA"/>
<rect x="936.92" y="-108.589" width="10" height="969" rx="5" transform="rotate(30 936.92 -108.589)" fill="#68C9BA"/>
<rect x="972.92" y="-108.589" width="10" height="969" rx="5" transform="rotate(30 972.92 -108.589)" fill="#68C9BA"/>
<rect x="1008.92" y="-108.589" width="10" height="969" rx="5" transform="rotate(30 1008.92 -108.589)" fill="#68C9BA"/>
<rect x="1044.92" y="-108.589" width="10" height="969" rx="5" transform="rotate(30 1044.92 -108.589)" fill="#68C9BA"/>
<rect x="1080.92" y="-108.589" width="10" height="969" rx="5" transform="rotate(30 1080.92 -108.589)" fill="#68C9BA"/>
<rect x="1116.92" y="-108.589" width="10" height="969" rx="5" transform="rotate(30 1116.92 -108.589)" fill="#68C9BA"/>
<rect x="1152.92" y="-108.589" width="10" height="969" rx="5" transform="rotate(30 1152.92 -108.589)" fill="#68C9BA"/>
<rect x="1188.92" y="-108.589" width="10" height="969" rx="5" transform="rotate(30 1188.92 -108.589)" fill="#68C9BA"/>
<rect x="1224.92" y="-108.589" width="10" height="969" rx="5" transform="rotate(30 1224.92 -108.589)" fill="#68C9BA"/>
<rect x="1260.92" y="-108.589" width="10" height="969" rx="5" transform="rotate(30 1260.92 -108.589)" fill="#68C9BA"/>
<rect x="1296.92" y="-108.589" width="10" height="969" rx="5" transform="rotate(30 1296.92 -108.589)" fill="#68C9BA"/>
<rect x="1332.92" y="-108.589" width="10" height="969" rx="5" transform="rotate(30 1332.92 -108.589)" fill="#68C9BA"/>
<rect x="1368.92" y="-108.589" width="10" height="969" rx="5" transform="rotate(30 1368.92 -108.589)" fill="#68C9BA"/>
<rect x="1404.92" y="-108.589" width="10" height="969" rx="5" transform="rotate(30 1404.92 -108.589)" fill="#68C9BA"/>
<rect x="1440.92" y="-108.589" width="10" height="969" rx="5" transform="rotate(30 1440.92 -108.589)" fill="#68C9BA"/>
</g>
</svg>
